<mxfile host="app.diagrams.net" agent="Mozilla/5.0 (X11; Linux x86_64) AppleWebKit/537.36 (KHTML, like Gecko) Chrome/134.0.0.0 Safari/537.36" version="27.0.3">
  <diagram id="-Tr3lX1bvUTWqXh7uTsu" name="Page-1">
    <mxGraphModel dx="1360" dy="913" grid="1" gridSize="5" guides="1" tooltips="1" connect="1" arrows="1" fold="1" page="1" pageScale="1" pageWidth="1169" pageHeight="827" math="0" shadow="0">
      <root>
        <mxCell id="0" />
        <mxCell id="1" parent="0" />
        <mxCell id="i5HqDQTCsB62NYJwkGnv-4" style="edgeStyle=orthogonalEdgeStyle;rounded=0;orthogonalLoop=1;jettySize=auto;html=1;exitX=0.5;exitY=1;exitDx=0;exitDy=0;entryX=0.462;entryY=0.111;entryDx=0;entryDy=0;entryPerimeter=0;endArrow=cross;endFill=0;" parent="1" edge="1">
          <mxGeometry relative="1" as="geometry">
            <mxPoint x="91.91000000000001" y="399.985" as="sourcePoint" />
            <mxPoint x="92.42" y="274.8699999999999" as="targetPoint" />
          </mxGeometry>
        </mxCell>
        <mxCell id="PAzl1V93zPWZ2kn87MjU-41" style="edgeStyle=orthogonalEdgeStyle;rounded=0;orthogonalLoop=1;jettySize=auto;html=1;exitX=0;exitY=0.75;exitDx=0;exitDy=0;entryX=1.014;entryY=0.192;entryDx=0;entryDy=0;entryPerimeter=0;endArrow=cross;startFill=0;endFill=0;" parent="1" edge="1">
          <mxGeometry relative="1" as="geometry">
            <mxPoint x="165" y="454.99999999999994" as="sourcePoint" />
            <mxPoint x="529" y="455.04" as="targetPoint" />
          </mxGeometry>
        </mxCell>
        <mxCell id="PAzl1V93zPWZ2kn87MjU-17" style="edgeStyle=orthogonalEdgeStyle;rounded=0;orthogonalLoop=1;jettySize=auto;html=1;exitX=1;exitY=0.5;exitDx=0;exitDy=0;entryX=0;entryY=0.5;entryDx=0;entryDy=0;endArrow=cross;startFill=0;endFill=0;" parent="1" source="PAzl1V93zPWZ2kn87MjU-1" target="PAzl1V93zPWZ2kn87MjU-3" edge="1">
          <mxGeometry relative="1" as="geometry" />
        </mxCell>
        <mxCell id="PAzl1V93zPWZ2kn87MjU-1" value="&lt;div style=&quot;line-height: 130%;&quot;&gt;&lt;font style=&quot;font-size: 13px; line-height: 130%;&quot;&gt;CAMPIONAT_EUROPEAN&lt;/font&gt;&lt;div&gt;&lt;font style=&quot;font-size: 13px; line-height: 130%;&quot;&gt;id_ediție_euro#&lt;/font&gt;&lt;/div&gt;&lt;div&gt;&lt;font style=&quot;font-size: 13px; line-height: 130%;&quot;&gt;țară_gazdă&lt;/font&gt;&lt;/div&gt;&lt;div&gt;&lt;font style=&quot;font-size: 13px; line-height: 130%;&quot;&gt;dată_început&lt;/font&gt;&lt;/div&gt;&lt;div&gt;&lt;font style=&quot;font-size: 13px; line-height: 130%;&quot;&gt;dată_sfărșit&lt;/font&gt;&lt;/div&gt;&lt;/div&gt;" style="rounded=0;whiteSpace=wrap;html=1;align=left;fontFamily=Georgia;spacingBottom=4;spacingLeft=4;" parent="1" vertex="1">
          <mxGeometry x="20" y="10" width="165" height="110" as="geometry" />
        </mxCell>
        <mxCell id="PAzl1V93zPWZ2kn87MjU-2" value="&lt;div style=&quot;line-height: 130%;&quot;&gt;ASOCIAȚIE&lt;div&gt;id_asociație#&lt;/div&gt;&lt;div&gt;nume&lt;/div&gt;&lt;div&gt;id_țară&lt;/div&gt;&lt;/div&gt;" style="rounded=0;whiteSpace=wrap;html=1;fontFamily=Georgia;align=left;fontSize=13;spacingLeft=4;spacingBottom=4;" parent="1" vertex="1">
          <mxGeometry x="20" y="185.12" width="135" height="89.75" as="geometry" />
        </mxCell>
        <mxCell id="PAzl1V93zPWZ2kn87MjU-19" style="edgeStyle=orthogonalEdgeStyle;rounded=0;orthogonalLoop=1;jettySize=auto;html=1;endArrow=cross;startFill=0;endFill=0;" parent="1" source="PAzl1V93zPWZ2kn87MjU-4" target="PAzl1V93zPWZ2kn87MjU-3" edge="1">
          <mxGeometry relative="1" as="geometry" />
        </mxCell>
        <mxCell id="PAzl1V93zPWZ2kn87MjU-3" value="&lt;font style=&quot;font-size: 13px;&quot;&gt;NAȚIONALĂ&lt;/font&gt;&lt;div style=&quot;line-height: 130%;&quot;&gt;&lt;font style=&quot;font-size: 13px;&quot;&gt;id_națională#&lt;/font&gt;&lt;/div&gt;&lt;div style=&quot;line-height: 130%;&quot;&gt;&lt;font style=&quot;font-size: 13px;&quot;&gt;id_ediție_euro&lt;/font&gt;&lt;/div&gt;&lt;div style=&quot;line-height: 130%;&quot;&gt;&lt;font style=&quot;font-size: 13px;&quot;&gt;id_țară&lt;/font&gt;&lt;/div&gt;&lt;div style=&quot;line-height: 130%;&quot;&gt;&lt;font style=&quot;font-size: 13px;&quot;&gt;nume&lt;/font&gt;&lt;/div&gt;&lt;div style=&quot;line-height: 130%;&quot;&gt;&lt;font style=&quot;font-size: 13px;&quot;&gt;selecționer&lt;/font&gt;&lt;/div&gt;" style="rounded=0;whiteSpace=wrap;html=1;spacingLeft=4;spacingBottom=4;align=left;fontFamily=Georgia;" parent="1" vertex="1">
          <mxGeometry x="310" y="10" width="140" height="110" as="geometry" />
        </mxCell>
        <mxCell id="PAzl1V93zPWZ2kn87MjU-4" value="&lt;div style=&quot;line-height: 130%;&quot;&gt;ȚARĂ&lt;div&gt;id_țară#&lt;/div&gt;&lt;div&gt;nume&lt;/div&gt;&lt;/div&gt;" style="rounded=0;whiteSpace=wrap;html=1;fontFamily=Georgia;align=left;spacingLeft=4;spacingBottom=4;fontSize=13;" parent="1" vertex="1">
          <mxGeometry x="312" y="240" width="136" height="86" as="geometry" />
        </mxCell>
        <mxCell id="PAzl1V93zPWZ2kn87MjU-23" style="edgeStyle=orthogonalEdgeStyle;rounded=0;orthogonalLoop=1;jettySize=auto;html=1;exitX=0.5;exitY=1;exitDx=0;exitDy=0;endArrow=cross;startFill=0;endFill=0;" parent="1" source="PAzl1V93zPWZ2kn87MjU-5" target="PAzl1V93zPWZ2kn87MjU-11" edge="1">
          <mxGeometry relative="1" as="geometry" />
        </mxCell>
        <mxCell id="PAzl1V93zPWZ2kn87MjU-58" style="edgeStyle=orthogonalEdgeStyle;rounded=0;orthogonalLoop=1;jettySize=auto;html=1;exitX=1;exitY=0.25;exitDx=0;exitDy=0;entryX=0.5;entryY=1;entryDx=0;entryDy=0;endArrow=cross;startFill=0;endFill=0;" parent="1" source="PAzl1V93zPWZ2kn87MjU-5" target="PAzl1V93zPWZ2kn87MjU-4" edge="1">
          <mxGeometry relative="1" as="geometry">
            <Array as="points">
              <mxPoint x="165" y="415" />
              <mxPoint x="380" y="415" />
            </Array>
          </mxGeometry>
        </mxCell>
        <mxCell id="PAzl1V93zPWZ2kn87MjU-5" value="CAMPIONAT_INTERN&lt;div&gt;id_campionat#&lt;/div&gt;&lt;div&gt;id_asociație&lt;/div&gt;&lt;div&gt;id_țară&lt;/div&gt;&lt;div&gt;nume&lt;/div&gt;&lt;div&gt;dată_început&lt;/div&gt;&lt;div&gt;dată_sfârșit&lt;/div&gt;&lt;div&gt;format_desfășurare&lt;/div&gt;" style="rounded=0;whiteSpace=wrap;html=1;align=left;fontSize=13;fontFamily=Georgia;spacingLeft=4;spacingBottom=4;" parent="1" vertex="1">
          <mxGeometry x="20" y="385" width="145" height="145" as="geometry" />
        </mxCell>
        <mxCell id="vVw3Jej1Gev_GKbFquha-10" style="edgeStyle=orthogonalEdgeStyle;rounded=0;orthogonalLoop=1;jettySize=auto;html=1;exitX=0.25;exitY=0;exitDx=0;exitDy=0;entryX=0;entryY=0.75;entryDx=0;entryDy=0;endArrow=cross;startFill=0;endFill=0;" parent="1" source="PAzl1V93zPWZ2kn87MjU-7" target="PAzl1V93zPWZ2kn87MjU-12" edge="1">
          <mxGeometry relative="1" as="geometry" />
        </mxCell>
        <mxCell id="i5HqDQTCsB62NYJwkGnv-26" style="edgeStyle=orthogonalEdgeStyle;rounded=0;orthogonalLoop=1;jettySize=auto;html=1;exitX=1;exitY=0.75;exitDx=0;exitDy=0;entryX=0.25;entryY=0;entryDx=0;entryDy=0;endArrow=cross;endFill=0;" parent="1" edge="1" target="TV0OfFSddh6Ml534qaEw-8">
          <mxGeometry relative="1" as="geometry">
            <mxPoint x="690" y="455" as="sourcePoint" />
            <mxPoint x="880" y="492.5" as="targetPoint" />
            <Array as="points">
              <mxPoint x="690" y="470" />
              <mxPoint x="1024" y="470" />
            </Array>
          </mxGeometry>
        </mxCell>
        <mxCell id="aFjqH-vCg4lKXwrfHFaG-3" style="edgeStyle=none;curved=1;rounded=0;orthogonalLoop=1;jettySize=auto;html=1;exitX=0.5;exitY=1;exitDx=0;exitDy=0;entryX=1;entryY=0.75;entryDx=0;entryDy=0;fontSize=12;startSize=8;endSize=8;strokeColor=none;" parent="1" source="PAzl1V93zPWZ2kn87MjU-8" edge="1">
          <mxGeometry relative="1" as="geometry">
            <mxPoint x="885" y="266.875" as="targetPoint" />
          </mxGeometry>
        </mxCell>
        <mxCell id="XFc1n4AspsmPdm-OErWC-1" style="edgeStyle=orthogonalEdgeStyle;rounded=0;orthogonalLoop=1;jettySize=auto;html=1;exitX=0.25;exitY=1;exitDx=0;exitDy=0;entryX=0.75;entryY=0;entryDx=0;entryDy=0;endArrow=cross;endFill=0;" parent="1" source="PAzl1V93zPWZ2kn87MjU-8" target="PAzl1V93zPWZ2kn87MjU-7" edge="1">
          <mxGeometry relative="1" as="geometry" />
        </mxCell>
        <mxCell id="PAzl1V93zPWZ2kn87MjU-8" value="&lt;div style=&quot;line-height: 130%;&quot;&gt;COMPEIȚIE_EUROPEANĂ_CLUB&lt;div&gt;id_competiție#&lt;/div&gt;&lt;div&gt;nume_competiție&lt;/div&gt;&lt;div&gt;număr_echipe&lt;/div&gt;&lt;div&gt;dată_început&lt;/div&gt;&lt;div&gt;dată_final&lt;/div&gt;&lt;div&gt;&lt;/div&gt;&lt;/div&gt;" style="rounded=0;whiteSpace=wrap;html=1;align=left;fontFamily=Georgia;fontSize=13;spacingLeft=4;spacingBottom=4;" parent="1" vertex="1">
          <mxGeometry x="925" y="10" width="230" height="150" as="geometry" />
        </mxCell>
        <mxCell id="PAzl1V93zPWZ2kn87MjU-12" value="JUCĂTOR&lt;div&gt;id_jucător#&lt;/div&gt;&lt;div&gt;id_echipă&lt;/div&gt;&lt;div&gt;id_națională&lt;/div&gt;&lt;div&gt;nume&lt;/div&gt;&lt;div&gt;naționalitate&lt;/div&gt;&lt;div&gt;număr_tricou&lt;/div&gt;&lt;div style=&quot;line-height: 130%;&quot;&gt;poziție&lt;/div&gt;" style="rounded=0;whiteSpace=wrap;html=1;fontFamily=Georgia;align=left;fontSize=13;spacingLeft=4;spacingBottom=4;" parent="1" vertex="1">
          <mxGeometry x="670" y="10" width="160" height="150" as="geometry" />
        </mxCell>
        <mxCell id="PAzl1V93zPWZ2kn87MjU-11" value="ETAPĂ_CAMPIONAT&lt;div&gt;id_etapă_campionat#&lt;/div&gt;&lt;div&gt;id_campionat&lt;/div&gt;&lt;div&gt;număr_etapă&lt;/div&gt;&lt;div&gt;dată_început&lt;/div&gt;&lt;div&gt;dată_sfârșit&lt;/div&gt;" style="rounded=0;whiteSpace=wrap;html=1;fontFamily=Georgia;align=left;fontSize=13;spacingLeft=4;spacingBottom=4;" parent="1" vertex="1">
          <mxGeometry x="20" y="690" width="145" height="120" as="geometry" />
        </mxCell>
        <mxCell id="R6JG7z7YJKqC3lnmiegM-21" value="&lt;font style=&quot;font-size: 13px;&quot;&gt;_&lt;/font&gt;" style="text;html=1;align=center;verticalAlign=middle;resizable=0;points=[];autosize=1;strokeColor=none;fillColor=none;strokeWidth=7;" parent="1" vertex="1">
          <mxGeometry x="467" y="609" width="30" height="30" as="geometry" />
        </mxCell>
        <mxCell id="i5HqDQTCsB62NYJwkGnv-3" style="edgeStyle=orthogonalEdgeStyle;rounded=0;orthogonalLoop=1;jettySize=auto;html=1;exitX=1;exitY=0.5;exitDx=0;exitDy=0;entryX=-0.005;entryY=0.371;entryDx=0;entryDy=0;entryPerimeter=0;endArrow=cross;endFill=0;" parent="1" source="PAzl1V93zPWZ2kn87MjU-3" target="PAzl1V93zPWZ2kn87MjU-12" edge="1">
          <mxGeometry relative="1" as="geometry" />
        </mxCell>
        <mxCell id="i5HqDQTCsB62NYJwkGnv-6" value="&lt;font style=&quot;font-size: 13px;&quot;&gt;_&lt;/font&gt;" style="text;html=1;align=center;verticalAlign=middle;resizable=0;points=[];autosize=1;strokeColor=none;fillColor=none;strokeWidth=7;" parent="1" vertex="1">
          <mxGeometry x="365" y="93" width="30" height="30" as="geometry" />
        </mxCell>
        <mxCell id="i5HqDQTCsB62NYJwkGnv-8" value="&lt;font style=&quot;font-size: 13px;&quot;&gt;_&lt;/font&gt;" style="text;html=1;align=center;verticalAlign=middle;resizable=0;points=[];autosize=1;strokeColor=none;fillColor=none;strokeWidth=7;" parent="1" vertex="1">
          <mxGeometry x="77.5" y="675" width="30" height="30" as="geometry" />
        </mxCell>
        <mxCell id="i5HqDQTCsB62NYJwkGnv-18" value="FAZĂ_COMPETIȚIE&lt;div&gt;id_fază_competițîe#&lt;/div&gt;&lt;div&gt;id_competiție&lt;/div&gt;&lt;div&gt;nume_fază&lt;/div&gt;&lt;div&gt;dată_început&lt;/div&gt;&lt;div&gt;dată_sfârșit&lt;/div&gt;" style="rounded=0;whiteSpace=wrap;html=1;fontFamily=Georgia;align=left;fontSize=13;spacingLeft=4;spacingBottom=4;" parent="1" vertex="1">
          <mxGeometry x="1011" y="305" width="145" height="120" as="geometry" />
        </mxCell>
        <mxCell id="i5HqDQTCsB62NYJwkGnv-32" value="&lt;font style=&quot;font-size: 13px;&quot;&gt;_&lt;/font&gt;" style="text;html=1;align=center;verticalAlign=middle;resizable=0;points=[];autosize=1;strokeColor=none;fillColor=none;strokeWidth=7;" parent="1" vertex="1">
          <mxGeometry x="1105" y="287" width="30" height="30" as="geometry" />
        </mxCell>
        <mxCell id="TV0OfFSddh6Ml534qaEw-1" value="ANTRENOR&lt;div&gt;id_antrenor#&lt;/div&gt;&lt;div&gt;id_echipă&lt;/div&gt;&lt;div&gt;nume&lt;/div&gt;" style="rounded=0;whiteSpace=wrap;html=1;fontFamily=Georgia;align=left;spacingLeft=4;spacingBottom=4;" vertex="1" parent="1">
          <mxGeometry x="835" y="335" width="115" height="85" as="geometry" />
        </mxCell>
        <mxCell id="TV0OfFSddh6Ml534qaEw-2" style="edgeStyle=orthogonalEdgeStyle;rounded=0;orthogonalLoop=1;jettySize=auto;html=1;exitX=1;exitY=0.25;exitDx=0;exitDy=0;entryX=-0.01;entryY=0.678;entryDx=0;entryDy=0;entryPerimeter=0;endArrow=cross;endFill=0;" edge="1" parent="1" source="PAzl1V93zPWZ2kn87MjU-7" target="TV0OfFSddh6Ml534qaEw-1">
          <mxGeometry relative="1" as="geometry" />
        </mxCell>
        <mxCell id="TV0OfFSddh6Ml534qaEw-3" value="SPONSOR&lt;div&gt;id_sponsor#&lt;/div&gt;&lt;div&gt;nume&lt;/div&gt;" style="rounded=0;whiteSpace=wrap;html=1;fontFamily=Georgia;align=left;fontSize=13;spacingLeft=4;spacingBottom=4;" vertex="1" parent="1">
          <mxGeometry x="275" y="675" width="125" height="86.5" as="geometry" />
        </mxCell>
        <mxCell id="TV0OfFSddh6Ml534qaEw-34" style="edgeStyle=orthogonalEdgeStyle;rounded=0;orthogonalLoop=1;jettySize=auto;html=1;exitX=1;exitY=0.5;exitDx=0;exitDy=0;entryX=0;entryY=0.5;entryDx=0;entryDy=0;endArrow=cross;endFill=0;" edge="1" parent="1" source="TV0OfFSddh6Ml534qaEw-4" target="TV0OfFSddh6Ml534qaEw-8">
          <mxGeometry relative="1" as="geometry" />
        </mxCell>
        <mxCell id="TV0OfFSddh6Ml534qaEw-4" value="STADION&lt;div&gt;id_stadion#&lt;/div&gt;&lt;div&gt;nume&lt;/div&gt;&lt;div&gt;oraș&lt;/div&gt;&lt;div&gt;capacitate&lt;/div&gt;" style="rounded=0;whiteSpace=wrap;html=1;fontFamily=Georgia;align=left;fontSize=13;spacingLeft=4;spacingBottom=4;" vertex="1" parent="1">
          <mxGeometry x="720" y="655" width="130" height="100" as="geometry" />
        </mxCell>
        <mxCell id="TV0OfFSddh6Ml534qaEw-30" style="edgeStyle=orthogonalEdgeStyle;rounded=0;orthogonalLoop=1;jettySize=auto;html=1;exitX=0.25;exitY=1;exitDx=0;exitDy=0;endArrow=cross;endFill=0;" edge="1" parent="1" source="PAzl1V93zPWZ2kn87MjU-7">
          <mxGeometry relative="1" as="geometry">
            <mxPoint x="570" y="580" as="targetPoint" />
            <mxPoint x="570" y="500" as="sourcePoint" />
          </mxGeometry>
        </mxCell>
        <mxCell id="TV0OfFSddh6Ml534qaEw-32" style="edgeStyle=orthogonalEdgeStyle;rounded=0;orthogonalLoop=1;jettySize=auto;html=1;exitX=0.75;exitY=1;exitDx=0;exitDy=0;entryX=0.5;entryY=0;entryDx=0;entryDy=0;endArrow=cross;endFill=0;" edge="1" parent="1" source="PAzl1V93zPWZ2kn87MjU-7" target="TV0OfFSddh6Ml534qaEw-4">
          <mxGeometry relative="1" as="geometry" />
        </mxCell>
        <mxCell id="PAzl1V93zPWZ2kn87MjU-7" value="&lt;div style=&quot;line-height: 130%;&quot;&gt;ECHIPĂ&lt;div&gt;id_echipă#&lt;/div&gt;&lt;div&gt;id_campionat&lt;/div&gt;&lt;div&gt;id_competiție&lt;/div&gt;&lt;div&gt;id_stadion&lt;/div&gt;&lt;div&gt;nume&lt;/div&gt;&lt;div&gt;&lt;/div&gt;&lt;/div&gt;" style="rounded=0;whiteSpace=wrap;html=1;fontSize=13;spacingLeft=4;spacingBottom=4;fontFamily=Georgia;align=left;" parent="1" vertex="1">
          <mxGeometry x="530" y="360" width="160" height="130" as="geometry" />
        </mxCell>
        <mxCell id="TV0OfFSddh6Ml534qaEw-8" value="MECI&lt;div&gt;id_meci#&lt;/div&gt;&lt;div&gt;id_stadion&lt;/div&gt;&lt;div&gt;&lt;br&gt;&lt;/div&gt;&lt;div&gt;&lt;br&gt;&lt;/div&gt;&lt;div&gt;&lt;br&gt;&lt;/div&gt;&lt;div&gt;&lt;br&gt;&lt;/div&gt;&lt;div&gt;&lt;br&gt;&lt;/div&gt;&lt;div&gt;&lt;br&gt;&lt;/div&gt;&lt;div&gt;&lt;br&gt;&lt;/div&gt;&lt;div&gt;&lt;br&gt;&lt;/div&gt;&lt;div&gt;&lt;br&gt;&lt;/div&gt;&lt;div&gt;&lt;br&gt;&lt;/div&gt;" style="rounded=0;whiteSpace=wrap;html=1;align=left;fontFamily=Georgia;fontSize=13;spacingLeft=4;spacingBottom=4;" vertex="1" parent="1">
          <mxGeometry x="980" y="595" width="175" height="220" as="geometry" />
        </mxCell>
        <mxCell id="TV0OfFSddh6Ml534qaEw-10" value="&lt;div style=&quot;line-height: 130%;&quot;&gt;MECI_INTERN&lt;/div&gt;&lt;div style=&quot;line-height: 130%;&quot;&gt;id_etapă&lt;/div&gt;" style="rounded=0;whiteSpace=wrap;html=1;fontFamily=Georgia;align=left;spacingLeft=4;spacingBottom=4;fontSize=13;" vertex="1" parent="1">
          <mxGeometry x="1033.5" y="670" width="113" height="46" as="geometry" />
        </mxCell>
        <mxCell id="TV0OfFSddh6Ml534qaEw-11" value="&lt;div style=&quot;line-height: 130%;&quot;&gt;MECI_EURO&lt;/div&gt;&lt;div style=&quot;line-height: 130%;&quot;&gt;id_fază_competiție&lt;/div&gt;" style="rounded=0;whiteSpace=wrap;html=1;fontFamily=Georgia;align=left;spacingLeft=4;spacingBottom=4;fontSize=13;" vertex="1" parent="1">
          <mxGeometry x="1033.5" y="745.5" width="113" height="46" as="geometry" />
        </mxCell>
        <mxCell id="TV0OfFSddh6Ml534qaEw-12" value="" style="endArrow=cross;html=1;rounded=0;endFill=0;" edge="1" parent="1">
          <mxGeometry width="50" height="50" relative="1" as="geometry">
            <mxPoint x="981" y="692.5" as="sourcePoint" />
            <mxPoint x="1033.5" y="692.5" as="targetPoint" />
          </mxGeometry>
        </mxCell>
        <mxCell id="TV0OfFSddh6Ml534qaEw-13" value="" style="endArrow=cross;html=1;rounded=0;endFill=0;" edge="1" parent="1">
          <mxGeometry width="50" height="50" relative="1" as="geometry">
            <mxPoint x="981" y="765" as="sourcePoint" />
            <mxPoint x="1033.5" y="765" as="targetPoint" />
          </mxGeometry>
        </mxCell>
        <mxCell id="TV0OfFSddh6Ml534qaEw-17" style="edgeStyle=orthogonalEdgeStyle;rounded=0;orthogonalLoop=1;jettySize=auto;html=1;exitX=0.85;exitY=0.998;exitDx=0;exitDy=0;entryX=0.75;entryY=0;entryDx=0;entryDy=0;exitPerimeter=0;endArrow=cross;endFill=0;" edge="1" parent="1" source="PAzl1V93zPWZ2kn87MjU-8" target="i5HqDQTCsB62NYJwkGnv-18">
          <mxGeometry relative="1" as="geometry" />
        </mxCell>
        <mxCell id="TV0OfFSddh6Ml534qaEw-19" style="edgeStyle=orthogonalEdgeStyle;rounded=0;orthogonalLoop=1;jettySize=auto;html=1;exitX=1;exitY=0.75;exitDx=0;exitDy=0;entryX=0;entryY=0.909;entryDx=0;entryDy=0;entryPerimeter=0;endArrow=cross;startFill=0;endFill=0;" edge="1" parent="1">
          <mxGeometry relative="1" as="geometry">
            <mxPoint x="165" y="784" as="sourcePoint" />
            <mxPoint x="980" y="795" as="targetPoint" />
            <Array as="points">
              <mxPoint x="165" y="795" />
            </Array>
          </mxGeometry>
        </mxCell>
        <mxCell id="R6JG7z7YJKqC3lnmiegM-15" value="SPONSORIZARE&lt;div&gt;id_sponsor&lt;/div&gt;&lt;div&gt;id_echipă&lt;/div&gt;&lt;div&gt;dată_început&lt;/div&gt;&lt;div&gt;dată_sfărșit&lt;/div&gt;&lt;div&gt;valoare_contract&lt;/div&gt;" style="rounded=0;whiteSpace=wrap;html=1;fontFamily=Georgia;align=left;fontSize=13;spacingLeft=4;spacingBottom=4;dashed=1;" parent="1" vertex="1">
          <mxGeometry x="490" y="580" width="130" height="115" as="geometry" />
        </mxCell>
        <mxCell id="TV0OfFSddh6Ml534qaEw-23" value="&lt;font style=&quot;font-size: 13px;&quot;&gt;_&lt;/font&gt;" style="text;html=1;align=center;verticalAlign=middle;resizable=0;points=[];autosize=1;strokeColor=none;fillColor=none;strokeWidth=7;" vertex="1" parent="1">
          <mxGeometry x="555" y="564" width="30" height="30" as="geometry" />
        </mxCell>
        <mxCell id="TV0OfFSddh6Ml534qaEw-31" style="edgeStyle=orthogonalEdgeStyle;rounded=0;orthogonalLoop=1;jettySize=auto;html=1;exitX=0.5;exitY=0;exitDx=0;exitDy=0;entryX=0;entryY=0.348;entryDx=0;entryDy=0;entryPerimeter=0;endArrow=cross;endFill=0;" edge="1" parent="1" source="TV0OfFSddh6Ml534qaEw-3" target="R6JG7z7YJKqC3lnmiegM-15">
          <mxGeometry relative="1" as="geometry" />
        </mxCell>
        <mxCell id="TV0OfFSddh6Ml534qaEw-33" style="edgeStyle=orthogonalEdgeStyle;rounded=0;orthogonalLoop=1;jettySize=auto;html=1;exitX=0.75;exitY=1;exitDx=0;exitDy=0;endArrow=cross;startFill=0;endFill=0;" edge="1" parent="1">
          <mxGeometry relative="1" as="geometry">
            <mxPoint x="1119" y="595" as="targetPoint" />
            <mxPoint x="1119" y="425" as="sourcePoint" />
          </mxGeometry>
        </mxCell>
      </root>
    </mxGraphModel>
  </diagram>
</mxfile>
